<svg width="18" height="18" viewBox="0 0 18 18" fill="none" xmlns="http://www.w3.org/2000/svg">
<path fill-rule="evenodd" clip-rule="evenodd" d="M11.2237 10.6913H11.8162L15.5587 14.4413L14.4412 15.5588L10.6912 11.8163V11.2238L10.4887 11.0138C9.63375 11.7488 8.52375 12.1913 7.31625 12.1913C4.62375 12.1913 2.44125 10.0088 2.44125 7.31625C2.44125 4.62375 4.62375 2.44125 7.31625 2.44125C10.0087 2.44125 12.1912 4.62375 12.1912 7.31625C12.1912 8.52375 11.7487 9.63375 11.0137 10.4888L11.2237 10.6913ZM3.94125 7.31625C3.94125 9.18375 5.44875 10.6913 7.31625 10.6913C9.18375 10.6913 10.6912 9.18375 10.6912 7.31625C10.6912 5.44875 9.18375 3.94125 7.31625 3.94125C5.44875 3.94125 3.94125 5.44875 3.94125 7.31625Z" fill="white" fill-opacity="0.5"/>
</svg>
